<svg width="143" height="41" viewBox="0 0 143 41" fill="none" xmlns="http://www.w3.org/2000/svg">
<circle cx="20.4999" cy="20.5" r="20.5" fill="white"/>
<path d="M3.70471 19.5001C4.76738 19.5001 5.62974 18.6637 5.8216 17.6184C6.92035 11.6331 11.6329 6.92047 17.6183 5.82173C18.6635 5.62986 19.5 4.7675 19.5 3.70483V3.70483C19.5 2.56037 18.5368 1.63947 17.4071 1.82309C9.39843 3.12493 3.12481 9.39855 1.82297 17.4073C1.63935 18.5369 2.56025 19.5001 3.70471 19.5001V19.5001Z" fill="#F8CA41"/>
<path d="M21.5 3.70537C21.5 4.76774 22.3362 5.62985 23.3811 5.82163C29.3668 6.9202 34.0796 11.6329 35.1784 17.6184C35.3702 18.6637 36.2326 19.5001 37.2953 19.5001V19.5001C38.4397 19.5001 39.3607 18.5368 39.1756 17.4074C37.8637 9.405 31.531 3.13489 23.5929 1.8262C22.4636 1.64002 21.5 2.56081 21.5 3.70537V3.70537Z" fill="#5C9FDA"/>
<path d="M19.5 37.2947C19.5 36.2324 18.6638 35.3702 17.6189 35.1785C11.6332 34.0799 6.92038 29.3672 5.82161 23.3817C5.62974 22.3364 4.76738 21.5 3.70471 21.5V21.5C2.56025 21.5 1.63929 22.4633 1.82443 23.5926C3.13626 31.5951 9.46893 37.8652 17.4071 39.1739C18.5364 39.3601 19.5 38.4393 19.5 37.2947V37.2947Z" fill="#5BBA6B"/>
<path d="M37.2947 21.5C36.2324 21.5 35.3702 22.3362 35.1785 23.3811C34.0799 29.3668 29.3672 34.0796 23.3816 35.1784C22.3364 35.3702 21.5 36.2326 21.5 37.2953V37.2953C21.5 38.4397 22.4633 39.3607 23.5926 39.1756C31.5951 37.8637 37.8652 31.531 39.1739 23.5929C39.3601 22.4636 38.4393 21.5 37.2947 21.5V21.5Z" fill="#E75044"/>
<path d="M29.5007 15.6002C29.2007 15.2002 28.6007 15.0002 28.1007 15.4002L20.0007 21.0002L13.9007 17.4002C13.4007 17.1002 12.8007 17.3002 12.5007 17.8002C12.2007 18.3002 12.4007 18.9002 12.9007 19.2002L19.5007 23.1002H19.6007C19.7007 23.1002 19.8007 23.2002 19.9007 23.2002C20.0007 23.2002 20.1007 23.2002 20.2007 23.2002C20.2007 23.2002 20.2007 23.2002 20.3007 23.2002C20.5007 23.2002 20.6007 23.1002 20.8007 23.0002L29.4007 17.0002C29.7007 16.7002 29.8007 16.1002 29.5007 15.6002Z" fill="#5D606E"/>
<path d="M87.7004 11C87.2004 11 86.7004 11.2 86.4004 11.5C86.0004 11.9 85.8004 12.3 85.8004 12.9C85.8004 13.5 86.0004 13.9 86.3004 14.2C86.7004 14.6 87.1004 14.8 87.7004 14.8C88.2004 14.8 88.7004 14.6 89.0004 14.3C89.4004 13.9 89.5004 13.5 89.5004 13C89.5004 12.5 89.3004 12 89.0004 11.7C88.7004 11.4 88.2004 11 87.7004 11Z" fill="#44484A"/>
<path d="M89.0003 17H84.4003C84.2003 17 84.1003 17.1 84.1003 17.3V19.1C84.1003 19.3 84.2003 19.4 84.4003 19.4H86.7003V29.7C86.7003 29.9 86.8003 29.9 87.0003 29.9H89.0003C89.2003 29.9 89.3003 29.8 89.3003 29.6V17.4C89.3003 17.1 89.2003 17 89.0003 17Z" fill="#44484A"/>
<path d="M129.3 11.8999H127.3C127.2 11.8999 127.1 11.9999 127 12.1999L123.7 21.2999C123.6 21.4999 123.6 21.6999 123.5 21.8999C123.4 22.0999 123.4 22.3999 123.3 22.8999C123.3 22.6999 123.2 22.3999 123.1 21.9999C123 21.6999 122.9 21.3999 122.9 21.2999L119.7 12.1999C119.6 11.9999 119.5 11.8999 119.4 11.8999H117.2C117 11.8999 116.9 11.9999 116.9 12.1999L115.8 29.5999C115.8 29.7999 115.9 29.8999 116.1 29.8999H118.4C118.6 29.8999 118.7 29.7999 118.7 29.5999L119.1 17.0999L122.1 25.5999C122.2 25.7999 122.3 25.8999 122.5 25.8999H123.9C124.1 25.8999 124.2 25.7999 124.3 25.5999L127.4 16.7999C127.4 16.6999 127.4 16.4999 127.4 16.3999C127.4 16.4999 127.4 16.5999 127.4 16.5999L127.8 29.5999C127.8 29.7999 127.9 29.8999 128.1 29.8999H130.3C130.5 29.8999 130.6 29.7999 130.6 29.5999L129.6 12.1999C129.6 11.9999 129.5 11.8999 129.3 11.8999Z" fill="#44484A"/>
<path d="M142.1 14.3999C142.3 14.3999 142.4 14.2999 142.5 14.1999L143 12.1999C143 11.9999 143 11.8999 142.7 11.8999H133.8C133.6 11.8999 133.5 11.9999 133.5 12.1999V29.5999C133.5 29.7999 133.6 29.8999 133.8 29.8999H142.6C142.8 29.8999 142.9 29.7999 142.9 29.5999V28.1999C142.9 27.9999 142.8 27.8999 142.6 27.8999H136.3V21.6999H141.5C141.7 21.6999 141.8 21.5999 141.8 21.3999V19.7999C141.8 19.5999 141.7 19.4999 141.5 19.4999H136.3V14.3999H142.1V14.3999Z" fill="#44484A"/>
<path d="M113.2 27.8999H110.5V13.8999H113.1C113.3 13.8999 113.4 13.6999 113.4 13.4999V12.1999C113.4 11.9999 113.3 11.8999 113.1 11.8999H105.1C104.9 11.8999 104.7 11.9999 104.7 12.1999V13.5999C104.7 13.7999 104.9 13.8999 105.1 13.8999H107.7V27.8999H105C104.8 27.8999 104.7 27.9999 104.7 28.1999V29.4999C104.7 29.6999 104.8 29.7999 105 29.7999H113.2C113.4 29.7999 113.5 29.6999 113.5 29.4999V28.1999C113.6 27.9999 113.4 27.8999 113.2 27.8999Z" fill="#44484A"/>
<path d="M103.4 11.8999H92.1004C91.8004 11.8999 91.7004 11.9999 91.7004 12.1999V13.9999C91.7004 14.1999 91.8004 14.2999 92.0004 14.2999H96.0004V29.4999C96.0004 29.6999 96.1004 29.7999 96.3004 29.7999H98.3004C98.5004 29.7999 98.6004 29.6999 98.6004 29.4999V14.3999H102.7C102.9 14.3999 103.1 14.2999 103.1 14.0999L103.7 12.2999C103.7 12.1999 103.7 12.0999 103.7 11.9999C103.7 11.9999 103.6 11.8999 103.4 11.8999Z" fill="#44484A"/>
<path d="M68.8004 16.7002C67.2004 16.7002 65.7004 17.2002 64.7004 18.3002C63.6004 19.6002 62.9004 21.5002 62.9004 23.7002C62.9004 26.0002 63.7004 28.0002 64.8004 29.0002C65.7004 29.8002 67.1004 30.2002 68.6004 30.2002C69.2004 30.2002 69.7004 30.2002 70.2004 30.1002C70.7004 30.0002 71.3004 29.8002 71.7004 29.6002C72.2004 29.4002 72.5004 29.3002 72.6004 29.2002C72.7004 29.1002 72.8004 29.1002 72.8004 29.0002V28.8002L72.2004 27.0002C72.2004 27.0002 72.1004 27.0002 72.0004 26.9002L71.7004 27.0002C71.1004 27.3002 70.6004 27.6002 70.3004 27.7002C69.8004 27.9002 69.3004 27.9002 68.8004 27.9002C67.5004 27.9002 66.7004 27.3002 66.2004 26.2002C65.9004 25.5002 65.7004 24.9002 65.7004 23.5002C65.7004 22.0002 65.9004 21.3002 66.5004 20.5002C67.1004 19.7002 67.9004 19.2002 69.0004 19.2002C69.5004 19.2002 70.1004 19.3002 70.5004 19.5002C70.9004 19.7002 71.3004 19.9002 71.8004 20.3002C71.9004 20.4002 72.0004 20.5002 72.1004 20.5002L72.2004 20.4002L72.9004 18.6002C72.9004 18.5002 73.0004 18.4002 73.2004 18.1002C73.1004 18.0002 73.0004 17.9002 72.7004 17.7002C71.6004 17.0002 70.1004 16.7002 68.8004 16.7002Z" fill="#44484A"/>
<path d="M82.8004 27.2998L82.4004 27.3998C82.2004 27.5998 81.8004 27.6998 81.4004 27.7998C81.0004 27.8998 80.4004 27.9998 80.0004 27.9998C79.4004 27.9998 79.3004 27.8998 79.1004 27.6998C78.8004 27.4998 78.7004 27.0998 78.7004 26.1998V19.0998H82.0004C82.1004 18.9998 82.1004 18.9998 82.2004 18.9998C82.2004 18.9998 82.3004 18.8998 82.3004 18.7998L82.7004 17.4998C82.7004 17.1998 82.7004 17.0998 82.4004 17.0998H78.7004V13.1998C78.7004 12.8998 78.6004 12.7998 78.4004 12.8998L76.2004 13.2998C76.0004 13.2998 75.9004 13.3998 75.9004 13.5998V17.0998H74.0004C73.8004 17.0998 73.7004 17.1998 73.7004 17.3998V18.6998C73.7004 18.8998 73.8004 18.9998 74.0004 18.9998H75.9004V26.1998C75.9004 26.8998 75.9004 27.8998 76.0004 28.2998C76.1004 28.6998 76.2004 29.0998 76.6004 29.3998C77.3004 29.9998 77.4004 29.9998 77.9004 30.0998C78.3004 30.2998 79.1004 30.3998 79.6004 30.3998C79.9004 30.3998 80.4004 30.3998 80.9004 30.2998C81.3004 30.1998 81.8004 30.0998 82.1004 29.9998C82.7004 29.7998 83.1004 29.6998 83.2004 29.4998C83.3004 29.3998 83.3004 29.2998 83.3004 29.0998L83.0004 27.3998C83.0004 27.2998 82.9004 27.2998 82.8004 27.2998Z" fill="#44484A"/>
<path d="M60.6004 28.0998C60.4004 27.5998 60.3004 26.9998 60.3004 26.2998V20.4998C60.3004 18.1998 58.6004 16.7998 55.8004 16.7998C54.5004 16.7998 52.9004 16.9998 51.7004 17.4998C51.6004 17.5998 51.4004 17.5998 51.3004 17.6998C51.2004 17.6998 51.1004 17.7998 51.1004 17.8998V18.0998L51.5004 19.6998L51.6004 19.7998C51.7004 19.8998 51.7004 19.8998 51.8004 19.8998L52.2004 19.7998C53.1004 19.2998 54.3004 19.0998 55.3004 19.0998C56.3004 19.0998 56.9004 19.2998 57.2004 19.7998C57.5004 20.0998 57.6004 20.3998 57.6004 21.0998V21.8998C57.6004 21.8998 56.6004 21.8998 56.0004 21.9998C55.4004 22.0998 55.2004 22.1998 54.7004 22.2998C53.3004 22.5998 51.9004 23.1998 51.2004 23.9998C50.7004 24.5998 50.4004 25.3998 50.4004 26.3998C50.4004 27.3998 50.6004 28.6998 51.2004 29.2998C51.9004 29.9998 53.3004 30.3998 54.5004 30.3998C55.3004 30.3998 56.1004 30.1998 56.8004 29.7998C57.2004 29.5998 57.3004 29.3998 57.8004 28.8998L58.0004 28.6998C58.1004 29.0998 58.6004 29.7998 58.7004 29.9998C58.9004 30.2998 59.0004 30.4998 59.1004 30.4998C59.2004 30.4998 59.4004 30.4998 59.5004 30.3998L61.0004 29.2998C61.1004 29.2998 61.1004 29.1998 61.1004 28.9998L61.0004 28.7998L60.6004 28.0998ZM57.6004 26.6998L57.4004 26.8998C57.0004 27.1998 56.7004 27.4998 56.3004 27.6998C55.7004 28.0998 55.4004 28.2998 54.9004 28.2998C54.4004 28.2998 54.3004 28.2998 53.9004 27.9998C53.6004 27.6998 53.3004 27.0998 53.3004 26.3998C53.3004 25.6998 53.5004 25.0998 54.1004 24.5998C54.8004 23.8998 55.8004 23.5998 57.6004 23.5998V26.6998V26.6998Z" fill="#44484A"/>
</svg>
